<svg width="15" height="16" viewBox="0 0 15 16" fill="none" xmlns="http://www.w3.org/2000/svg">
<path d="M13.2418 11.1362C12.2753 10.3095 11.2943 9.80877 10.3396 10.6342L9.76957 11.1331C9.35247 11.4953 8.57697 13.1874 5.5786 9.73821C2.58087 6.2934 4.36477 5.75705 4.7825 5.39802L5.35569 4.8985C6.3054 4.07117 5.947 3.02967 5.26203 1.95758L4.84868 1.30821C4.1606 0.238611 3.41132 -0.463837 2.45911 0.362242L1.94461 0.811809C1.52376 1.11839 0.347395 2.11493 0.0620449 4.00811C-0.281374 6.27967 0.801957 8.88091 3.28394 11.735C5.7628 14.5904 8.18984 16.0247 10.4889 15.9997C12.3995 15.9791 13.5534 14.9538 13.9143 14.581L14.4307 14.1309C15.3804 13.3054 14.7904 12.465 13.8232 11.6364L13.2418 11.1362Z" fill="#36A3EB"/>
</svg>
